<?xml version="1.0" standalone="no"?>
<!DOCTYPE svg PUBLIC "-//W3C//DTD SVG 20010904//EN"
 "http://www.w3.org/TR/2001/REC-SVG-20010904/DTD/svg10.dtd">
<svg version="1.0" xmlns="http://www.w3.org/2000/svg"
 width="216.000000pt" height="234.000000pt" viewBox="0 0 216.000000 234.000000"
 preserveAspectRatio="xMidYMid meet">

<g transform="translate(0.000000,234.000000) scale(0.100000,-0.100000)"
fill="currentColor" stroke="none">
<path d="M1103 2234 l-181 -105 35 -60 c19 -32 38 -59 41 -59 3 0 39 20 81 44
42 24 85 48 97 54 l21 11 -24 -131 c-12 -72 -21 -133 -18 -136 2 -2 33 -10 69
-17 l66 -12 5 31 c4 17 14 75 23 129 10 54 22 97 27 95 6 -1 39 -36 74 -78 35
-41 65 -77 67 -79 2 -2 28 17 58 43 l55 47 -130 154 c-119 142 -153 175 -176
175 -4 0 -90 -48 -190 -106z"/>
<path d="M462 2037 c-10 -11 -112 -379 -112 -402 0 -11 119 -47 130 -40 4 2
19 52 35 110 15 58 31 102 35 98 4 -4 39 -54 79 -111 l72 -102 30 17 c17 10
44 29 59 43 l29 25 -74 105 c-41 58 -75 107 -75 110 0 3 35 2 78 -2 42 -3 93
-7 114 -7 l36 -1 4 68 c2 37 3 68 3 69 -1 4 -344 33 -388 33 -24 0 -49 -6 -55
-13z"/>
<path d="M1557 1833 c-9 -36 -16 -67 -15 -69 2 -1 52 -16 112 -32 l109 -29
-104 -73 c-57 -40 -108 -76 -113 -81 -8 -7 62 -119 75 -119 3 0 54 34 113 75
59 41 109 75 112 75 3 0 3 -8 0 -17 -2 -10 -7 -61 -11 -114 l-7 -96 67 -7 c37
-4 69 -5 71 -3 5 5 34 331 34 387 0 37 -4 52 -17 58 -15 8 -391 112 -404 112
-2 0 -12 -30 -22 -67z"/>
<path d="M986 1552 l-185 -105 26 -46 c50 -87 37 -85 142 -24 51 29 96 51 99
48 3 -2 -5 -62 -17 -131 -12 -69 -21 -127 -19 -129 5 -4 133 -23 136 -20 1 1
12 56 23 121 11 65 23 125 25 133 2 7 33 -22 75 -73 40 -47 75 -86 78 -86 3 0
29 20 58 44 l52 43 -135 161 c-74 88 -143 162 -154 165 -13 3 -81 -30 -204
-101z"/>
<path d="M183 1404 c-147 -123 -183 -158 -183 -177 0 -13 46 -96 157 -285 l54
-92 47 26 c81 47 81 41 19 145 -31 52 -54 96 -52 97 2 2 61 -6 130 -18 102
-18 129 -20 135 -10 9 14 24 119 18 125 -2 2 -61 14 -131 26 -70 13 -127 25
-126 28 0 3 38 37 84 75 50 40 82 73 78 80 -14 24 -78 96 -84 96 -4 0 -70 -52
-146 -116z"/>
<path d="M1897 1210 c-27 -15 -53 -32 -59 -38 -7 -7 8 -42 46 -106 30 -53 50
-96 44 -96 -7 0 -65 10 -130 21 -66 12 -122 19 -125 15 -3 -3 -12 -35 -18 -70
l-12 -64 133 -23 c74 -12 134 -25 134 -28 -1 -3 -37 -35 -81 -71 -45 -36 -83
-68 -85 -72 -8 -12 80 -109 93 -103 28 10 313 258 319 277 4 14 -22 68 -90
186 -127 223 -111 206 -169 172z"/>
<path d="M858 867 l-176 -102 30 -55 c17 -30 34 -58 37 -62 4 -4 49 17 101 47
52 30 97 50 98 45 2 -6 -6 -65 -18 -131 -12 -67 -20 -122 -18 -124 8 -6 130
-26 135 -22 2 3 14 62 26 131 12 69 24 126 28 126 3 0 36 -36 73 -80 38 -44
72 -80 76 -80 12 0 101 78 100 87 -1 4 -60 79 -132 166 -108 129 -136 157
-157 157 -14 -1 -106 -47 -203 -103z"/>
<path d="M190 743 c0 -4 -7 -78 -15 -163 -21 -223 -21 -261 -2 -275 16 -11
407 -119 412 -113 3 5 34 132 32 134 -1 2 -51 16 -111 32 l-109 29 104 73 c57
40 108 76 113 81 11 10 -66 119 -81 114 -7 -2 -58 -36 -114 -75 -56 -39 -102
-70 -103 -68 -2 2 1 52 7 111 5 60 7 110 5 111 -8 8 -138 17 -138 9z"/>
<path d="M1403 465 c-28 -19 -54 -38 -56 -42 -3 -5 28 -55 69 -113 41 -58 74
-109 74 -113 0 -5 -8 -6 -17 -3 -10 2 -61 8 -114 11 l-97 7 -4 -68 c-3 -38 -4
-70 -3 -71 1 -2 93 -11 204 -21 148 -13 209 -15 225 -7 17 9 31 46 73 200 28
105 52 197 52 205 1 11 -19 21 -65 33 -37 10 -67 17 -68 15 -2 -2 -15 -51 -31
-110 -15 -60 -29 -108 -30 -108 -1 0 -37 50 -79 110 -42 61 -78 110 -79 110
-1 0 -26 -16 -54 -35z"/>
<path d="M884 249 c-70 -20 -107 -93 -84 -163 30 -92 150 -112 215 -35 50 60
22 174 -48 194 -43 12 -52 13 -83 4z"/>
</g>
</svg>
